<?xml version="1.0" encoding="UTF-8" standalone="no"?>
<!DOCTYPE svg PUBLIC "-//W3C//DTD SVG 1.1//EN"
 "http://www.w3.org/Graphics/SVG/1.1/DTD/svg11.dtd">
<!-- Generated by graphviz version 2.47.0 (20210316.0004)
 -->
<!-- Title: dependencies Pages: 1 -->
<svg width="1279pt" height="284pt"
 viewBox="0.00 0.00 1279.00 284.00" xmlns="http://www.w3.org/2000/svg" xmlns:xlink="http://www.w3.org/1999/xlink">
<g id="graph0" class="graph" transform="scale(1 1) rotate(0) translate(4 280)">
<title>dependencies</title>
<polygon fill="white" stroke="transparent" points="-4,4 -4,-280 1275,-280 1275,4 -4,4"/>
<text text-anchor="start" x="614.51" y="-42.4" font-family="Times-12" font-weight="bold" font-size="14.00">Legend</text>
<polygon fill="#ffffb3" stroke="transparent" points="401.5,-10 401.5,-30 421.5,-30 421.5,-10 401.5,-10"/>
<text text-anchor="start" x="425.13" y="-15.4" font-family="Times-12" font-size="14.00"> &#160;Declarations</text>
<polygon fill="#8dd3c7" stroke="transparent" points="514.5,-10 514.5,-30 534.5,-30 534.5,-10 514.5,-10"/>
<text text-anchor="start" x="538.23" y="-15.4" font-family="Times-12" font-size="14.00"> &#160;Module</text>
<polygon fill="#80b1d3" stroke="transparent" points="600.5,-10 600.5,-30 620.5,-30 620.5,-10 600.5,-10"/>
<text text-anchor="start" x="624.28" y="-15.4" font-family="Times-12" font-size="14.00"> &#160;Bootstrap</text>
<polygon fill="#fdb462" stroke="transparent" points="697.5,-10 697.5,-30 717.5,-30 717.5,-10 697.5,-10"/>
<text text-anchor="start" x="721.17" y="-15.4" font-family="Times-12" font-size="14.00"> &#160;Providers</text>
<polygon fill="#fb8072" stroke="transparent" points="793.5,-10 793.5,-30 813.5,-30 813.5,-10 793.5,-10"/>
<text text-anchor="start" x="817.23" y="-15.4" font-family="Times-12" font-size="14.00"> &#160;Exports</text>
<g id="clust1" class="cluster">
<title>cluster_AppModule</title>
<polygon fill="none" stroke="black" stroke-dasharray="1,5" points="8,-70 8,-268 1263,-268 1263,-70 8,-70"/>
</g>
<g id="clust2" class="cluster">
<title>cluster_AppModule_declarations</title>
<polygon fill="none" stroke="black" points="168,-78 168,-130 1255,-130 1255,-78 168,-78"/>
</g>
<g id="clust11" class="cluster">
<title>cluster_AppModule_imports</title>
<polygon fill="none" stroke="black" points="16,-78 16,-130 160,-130 160,-78 16,-78"/>
</g>
<g id="clust13" class="cluster">
<title>cluster_AppModule_bootstrap</title>
<polygon fill="none" stroke="black" points="575,-208 575,-260 699,-260 699,-208 575,-208"/>
</g>
<!-- AppComponent -->
<g id="node1" class="node">
<title>AppComponent</title>
<polygon fill="#ffffb3" stroke="black" points="1246.94,-122 1141.06,-122 1141.06,-86 1246.94,-86 1246.94,-122"/>
<text text-anchor="middle" x="1194" y="-99.8" font-family="Times,serif" font-size="14.00">AppComponent</text>
</g>
<!-- AppModule -->
<g id="node9" class="node">
<title>AppModule</title>
<polygon fill="#8dd3c7" stroke="black" points="678.66,-187 675.66,-191 654.66,-191 651.66,-187 595.34,-187 595.34,-151 678.66,-151 678.66,-187"/>
<text text-anchor="middle" x="637" y="-164.8" font-family="Times,serif" font-size="14.00">AppModule</text>
</g>
<!-- AppComponent&#45;&gt;AppModule -->
<g id="edge1" class="edge">
<title>AppComponent&#45;&gt;AppModule</title>
<path fill="none" stroke="black" d="M1194,-122.01C1194,-144.49 1194,-180 1194,-180 1194,-180 688.87,-180 688.87,-180"/>
<polygon fill="black" stroke="black" points="688.87,-176.5 678.87,-180 688.87,-183.5 688.87,-176.5"/>
</g>
<!-- DeactivateComponent -->
<g id="node2" class="node">
<title>DeactivateComponent</title>
<polygon fill="#ffffb3" stroke="black" points="1123.68,-122 982.32,-122 982.32,-86 1123.68,-86 1123.68,-122"/>
<text text-anchor="middle" x="1053" y="-99.8" font-family="Times,serif" font-size="14.00">DeactivateComponent</text>
</g>
<!-- DeactivateComponent&#45;&gt;AppModule -->
<g id="edge2" class="edge">
<title>DeactivateComponent&#45;&gt;AppModule</title>
<path fill="none" stroke="black" d="M1053,-122.13C1053,-142.57 1053,-173 1053,-173 1053,-173 688.79,-173 688.79,-173"/>
<polygon fill="black" stroke="black" points="688.79,-169.5 678.79,-173 688.79,-176.5 688.79,-169.5"/>
</g>
<!-- HomeComponent -->
<g id="node3" class="node">
<title>HomeComponent</title>
<polygon fill="#ffffb3" stroke="black" points="964.55,-122 849.45,-122 849.45,-86 964.55,-86 964.55,-122"/>
<text text-anchor="middle" x="907" y="-99.8" font-family="Times,serif" font-size="14.00">HomeComponent</text>
</g>
<!-- HomeComponent&#45;&gt;AppModule -->
<g id="edge3" class="edge">
<title>HomeComponent&#45;&gt;AppModule</title>
<path fill="none" stroke="black" d="M907,-122.27C907,-140.56 907,-166 907,-166 907,-166 688.89,-166 688.89,-166"/>
<polygon fill="black" stroke="black" points="688.89,-162.5 678.89,-166 688.89,-169.5 688.89,-162.5"/>
</g>
<!-- LoginComponent -->
<g id="node4" class="node">
<title>LoginComponent</title>
<polygon fill="#ffffb3" stroke="black" points="831.28,-122 716.72,-122 716.72,-86 831.28,-86 831.28,-122"/>
<text text-anchor="middle" x="774" y="-99.8" font-family="Times,serif" font-size="14.00">LoginComponent</text>
</g>
<!-- LoginComponent&#45;&gt;AppModule -->
<g id="edge4" class="edge">
<title>LoginComponent&#45;&gt;AppModule</title>
<path fill="none" stroke="black" d="M774,-122.01C774,-138.05 774,-159 774,-159 774,-159 688.85,-159 688.85,-159"/>
<polygon fill="black" stroke="black" points="688.85,-155.5 678.85,-159 688.85,-162.5 688.85,-155.5"/>
</g>
<!-- NavbarComponent -->
<g id="node5" class="node">
<title>NavbarComponent</title>
<polygon fill="#ffffb3" stroke="black" points="698.03,-122 575.97,-122 575.97,-86 698.03,-86 698.03,-122"/>
<text text-anchor="middle" x="637" y="-99.8" font-family="Times,serif" font-size="14.00">NavbarComponent</text>
</g>
<!-- NavbarComponent&#45;&gt;AppModule -->
<g id="edge5" class="edge">
<title>NavbarComponent&#45;&gt;AppModule</title>
<path fill="none" stroke="black" d="M637,-122.11C637,-122.11 637,-140.99 637,-140.99"/>
<polygon fill="black" stroke="black" points="633.5,-140.99 637,-150.99 640.5,-140.99 633.5,-140.99"/>
</g>
<!-- RequestComponent -->
<g id="node6" class="node">
<title>RequestComponent</title>
<polygon fill="#ffffb3" stroke="black" points="558.43,-122 431.57,-122 431.57,-86 558.43,-86 558.43,-122"/>
<text text-anchor="middle" x="495" y="-99.8" font-family="Times,serif" font-size="14.00">RequestComponent</text>
</g>
<!-- RequestComponent&#45;&gt;AppModule -->
<g id="edge6" class="edge">
<title>RequestComponent&#45;&gt;AppModule</title>
<path fill="none" stroke="black" d="M495,-122.01C495,-138.05 495,-159 495,-159 495,-159 585.16,-159 585.16,-159"/>
<polygon fill="black" stroke="black" points="585.16,-162.5 595.16,-159 585.16,-155.5 585.16,-162.5"/>
</g>
<!-- StatusComponent -->
<g id="node7" class="node">
<title>StatusComponent</title>
<polygon fill="#ffffb3" stroke="black" points="413.56,-122 298.44,-122 298.44,-86 413.56,-86 413.56,-122"/>
<text text-anchor="middle" x="356" y="-99.8" font-family="Times,serif" font-size="14.00">StatusComponent</text>
</g>
<!-- StatusComponent&#45;&gt;AppModule -->
<g id="edge7" class="edge">
<title>StatusComponent&#45;&gt;AppModule</title>
<path fill="none" stroke="black" d="M356,-122.27C356,-140.56 356,-166 356,-166 356,-166 585.23,-166 585.23,-166"/>
<polygon fill="black" stroke="black" points="585.23,-169.5 595.23,-166 585.23,-162.5 585.23,-169.5"/>
</g>
<!-- UpcComponent -->
<g id="node8" class="node">
<title>UpcComponent</title>
<polygon fill="#ffffb3" stroke="black" points="280.15,-122 175.85,-122 175.85,-86 280.15,-86 280.15,-122"/>
<text text-anchor="middle" x="228" y="-99.8" font-family="Times,serif" font-size="14.00">UpcComponent</text>
</g>
<!-- UpcComponent&#45;&gt;AppModule -->
<g id="edge8" class="edge">
<title>UpcComponent&#45;&gt;AppModule</title>
<path fill="none" stroke="black" d="M228,-122.13C228,-142.57 228,-173 228,-173 228,-173 585.15,-173 585.15,-173"/>
<polygon fill="black" stroke="black" points="585.15,-176.5 595.15,-173 585.15,-169.5 585.15,-176.5"/>
</g>
<!-- AppComponent  -->
<g id="node11" class="node">
<title>AppComponent </title>
<polygon fill="#80b1d3" stroke="black" points="691.44,-252 582.56,-252 582.56,-216 691.44,-216 691.44,-252"/>
<text text-anchor="middle" x="637" y="-229.8" font-family="Times,serif" font-size="14.00">AppComponent </text>
</g>
<!-- AppModule&#45;&gt;AppComponent  -->
<g id="edge10" class="edge">
<title>AppModule&#45;&gt;AppComponent </title>
<path fill="none" stroke="black" stroke-dasharray="1,5" d="M637,-187.11C637,-187.11 637,-205.99 637,-205.99"/>
<polygon fill="black" stroke="black" points="633.5,-205.99 637,-215.99 640.5,-205.99 633.5,-205.99"/>
</g>
<!-- AppRoutingModule -->
<g id="node10" class="node">
<title>AppRoutingModule</title>
<polygon fill="#8dd3c7" stroke="black" points="152.27,-122 149.27,-126 128.27,-126 125.27,-122 23.73,-122 23.73,-86 152.27,-86 152.27,-122"/>
<text text-anchor="middle" x="88" y="-99.8" font-family="Times,serif" font-size="14.00">AppRoutingModule</text>
</g>
<!-- AppRoutingModule&#45;&gt;AppModule -->
<g id="edge9" class="edge">
<title>AppRoutingModule&#45;&gt;AppModule</title>
<path fill="none" stroke="black" d="M88,-122.01C88,-144.49 88,-180 88,-180 88,-180 585.29,-180 585.29,-180"/>
<polygon fill="black" stroke="black" points="585.29,-183.5 595.29,-180 585.29,-176.5 585.29,-183.5"/>
</g>
</g>
</svg>
