<?xml version="1.0" encoding="UTF-8" standalone="no"?>
<!DOCTYPE svg PUBLIC "-//W3C//DTD SVG 1.1//EN"
 "http://www.w3.org/Graphics/SVG/1.1/DTD/svg11.dtd">
<!-- Generated by graphviz version 2.47.0 (20210316.0004)
 -->
<!-- Title: dependencies Pages: 1 -->
<svg width="1171pt" height="284pt"
 viewBox="0.00 0.00 1171.00 284.00" xmlns="http://www.w3.org/2000/svg" xmlns:xlink="http://www.w3.org/1999/xlink">
<g id="graph0" class="graph" transform="scale(1 1) rotate(0) translate(4 280)">
<title>dependencies</title>
<polygon fill="white" stroke="transparent" points="-4,4 -4,-280 1167,-280 1167,4 -4,4"/>
<text text-anchor="start" x="560.51" y="-42.4" font-family="Times-12" font-weight="bold" font-size="14.00">Legend</text>
<polygon fill="#ffffb3" stroke="transparent" points="347.5,-10 347.5,-30 367.5,-30 367.5,-10 347.5,-10"/>
<text text-anchor="start" x="371.13" y="-15.4" font-family="Times-12" font-size="14.00"> &#160;Declarations</text>
<polygon fill="#8dd3c7" stroke="transparent" points="460.5,-10 460.5,-30 480.5,-30 480.5,-10 460.5,-10"/>
<text text-anchor="start" x="484.23" y="-15.4" font-family="Times-12" font-size="14.00"> &#160;Module</text>
<polygon fill="#80b1d3" stroke="transparent" points="546.5,-10 546.5,-30 566.5,-30 566.5,-10 546.5,-10"/>
<text text-anchor="start" x="570.28" y="-15.4" font-family="Times-12" font-size="14.00"> &#160;Bootstrap</text>
<polygon fill="#fdb462" stroke="transparent" points="643.5,-10 643.5,-30 663.5,-30 663.5,-10 643.5,-10"/>
<text text-anchor="start" x="667.17" y="-15.4" font-family="Times-12" font-size="14.00"> &#160;Providers</text>
<polygon fill="#fb8072" stroke="transparent" points="739.5,-10 739.5,-30 759.5,-30 759.5,-10 739.5,-10"/>
<text text-anchor="start" x="763.23" y="-15.4" font-family="Times-12" font-size="14.00"> &#160;Exports</text>
<g id="clust1" class="cluster">
<title>cluster_AppModule</title>
<polygon fill="none" stroke="black" stroke-dasharray="1,5" points="8,-70 8,-268 1155,-268 1155,-70 8,-70"/>
</g>
<g id="clust2" class="cluster">
<title>cluster_AppModule_declarations</title>
<polygon fill="none" stroke="black" points="168,-78 168,-130 1147,-130 1147,-78 168,-78"/>
</g>
<g id="clust10" class="cluster">
<title>cluster_AppModule_imports</title>
<polygon fill="none" stroke="black" points="16,-78 16,-130 160,-130 160,-78 16,-78"/>
</g>
<g id="clust12" class="cluster">
<title>cluster_AppModule_bootstrap</title>
<polygon fill="none" stroke="black" points="536,-208 536,-260 660,-260 660,-208 536,-208"/>
</g>
<!-- ActivationComponent -->
<g id="node1" class="node">
<title>ActivationComponent</title>
<polygon fill="#ffffb3" stroke="black" points="1139.43,-122 998.57,-122 998.57,-86 1139.43,-86 1139.43,-122"/>
<text text-anchor="middle" x="1069" y="-99.8" font-family="Times,serif" font-size="14.00">ActivationComponent</text>
</g>
<!-- AppModule -->
<g id="node8" class="node">
<title>AppModule</title>
<polygon fill="#8dd3c7" stroke="black" points="639.66,-187 636.66,-191 615.66,-191 612.66,-187 556.34,-187 556.34,-151 639.66,-151 639.66,-187"/>
<text text-anchor="middle" x="598" y="-164.8" font-family="Times,serif" font-size="14.00">AppModule</text>
</g>
<!-- ActivationComponent&#45;&gt;AppModule -->
<g id="edge1" class="edge">
<title>ActivationComponent&#45;&gt;AppModule</title>
<path fill="none" stroke="black" d="M1069,-122.29C1069,-144.21 1069,-178 1069,-178 1069,-178 649.8,-178 649.8,-178"/>
<polygon fill="black" stroke="black" points="649.8,-174.5 639.8,-178 649.8,-181.5 649.8,-174.5"/>
</g>
<!-- AppComponent -->
<g id="node2" class="node">
<title>AppComponent</title>
<polygon fill="#ffffb3" stroke="black" points="980.94,-122 875.06,-122 875.06,-86 980.94,-86 980.94,-122"/>
<text text-anchor="middle" x="928" y="-99.8" font-family="Times,serif" font-size="14.00">AppComponent</text>
</g>
<!-- AppComponent&#45;&gt;AppModule -->
<g id="edge2" class="edge">
<title>AppComponent&#45;&gt;AppModule</title>
<path fill="none" stroke="black" d="M928,-122.11C928,-141.34 928,-169 928,-169 928,-169 649.79,-169 649.79,-169"/>
<polygon fill="black" stroke="black" points="649.79,-165.5 639.79,-169 649.79,-172.5 649.79,-165.5"/>
</g>
<!-- HomeComponent -->
<g id="node3" class="node">
<title>HomeComponent</title>
<polygon fill="#ffffb3" stroke="black" points="857.55,-122 742.45,-122 742.45,-86 857.55,-86 857.55,-122"/>
<text text-anchor="middle" x="800" y="-99.8" font-family="Times,serif" font-size="14.00">HomeComponent</text>
</g>
<!-- HomeComponent&#45;&gt;AppModule -->
<g id="edge3" class="edge">
<title>HomeComponent&#45;&gt;AppModule</title>
<path fill="none" stroke="black" d="M800,-122.03C800,-138.4 800,-160 800,-160 800,-160 649.85,-160 649.85,-160"/>
<polygon fill="black" stroke="black" points="649.85,-156.5 639.85,-160 649.85,-163.5 649.85,-156.5"/>
</g>
<!-- LoginComponent -->
<g id="node4" class="node">
<title>LoginComponent</title>
<polygon fill="#ffffb3" stroke="black" points="724.28,-122 609.72,-122 609.72,-86 724.28,-86 724.28,-122"/>
<text text-anchor="middle" x="667" y="-99.8" font-family="Times,serif" font-size="14.00">LoginComponent</text>
</g>
<!-- LoginComponent&#45;&gt;AppModule -->
<g id="edge4" class="edge">
<title>LoginComponent&#45;&gt;AppModule</title>
<path fill="none" stroke="black" d="M624.72,-122.11C624.72,-122.11 624.72,-140.99 624.72,-140.99"/>
<polygon fill="black" stroke="black" points="621.22,-140.99 624.72,-150.99 628.22,-140.99 621.22,-140.99"/>
</g>
<!-- NavbarComponent -->
<g id="node5" class="node">
<title>NavbarComponent</title>
<polygon fill="#ffffb3" stroke="black" points="591.03,-122 468.97,-122 468.97,-86 591.03,-86 591.03,-122"/>
<text text-anchor="middle" x="530" y="-99.8" font-family="Times,serif" font-size="14.00">NavbarComponent</text>
</g>
<!-- NavbarComponent&#45;&gt;AppModule -->
<g id="edge5" class="edge">
<title>NavbarComponent&#45;&gt;AppModule</title>
<path fill="none" stroke="black" d="M573.72,-122.11C573.72,-122.11 573.72,-140.99 573.72,-140.99"/>
<polygon fill="black" stroke="black" points="570.22,-140.99 573.72,-150.99 577.22,-140.99 570.22,-140.99"/>
</g>
<!-- StatusComponent -->
<g id="node6" class="node">
<title>StatusComponent</title>
<polygon fill="#ffffb3" stroke="black" points="450.56,-122 335.44,-122 335.44,-86 450.56,-86 450.56,-122"/>
<text text-anchor="middle" x="393" y="-99.8" font-family="Times,serif" font-size="14.00">StatusComponent</text>
</g>
<!-- StatusComponent&#45;&gt;AppModule -->
<g id="edge6" class="edge">
<title>StatusComponent&#45;&gt;AppModule</title>
<path fill="none" stroke="black" d="M393,-122.03C393,-138.4 393,-160 393,-160 393,-160 546.02,-160 546.02,-160"/>
<polygon fill="black" stroke="black" points="546.02,-163.5 556.02,-160 546.02,-156.5 546.02,-163.5"/>
</g>
<!-- SubscriberComponent -->
<g id="node7" class="node">
<title>SubscriberComponent</title>
<polygon fill="#ffffb3" stroke="black" points="317.7,-122 176.3,-122 176.3,-86 317.7,-86 317.7,-122"/>
<text text-anchor="middle" x="247" y="-99.8" font-family="Times,serif" font-size="14.00">SubscriberComponent</text>
</g>
<!-- SubscriberComponent&#45;&gt;AppModule -->
<g id="edge7" class="edge">
<title>SubscriberComponent&#45;&gt;AppModule</title>
<path fill="none" stroke="black" d="M247,-122.11C247,-141.34 247,-169 247,-169 247,-169 546.01,-169 546.01,-169"/>
<polygon fill="black" stroke="black" points="546.01,-172.5 556.01,-169 546.01,-165.5 546.01,-172.5"/>
</g>
<!-- AppComponent  -->
<g id="node10" class="node">
<title>AppComponent </title>
<polygon fill="#80b1d3" stroke="black" points="652.44,-252 543.56,-252 543.56,-216 652.44,-216 652.44,-252"/>
<text text-anchor="middle" x="598" y="-229.8" font-family="Times,serif" font-size="14.00">AppComponent </text>
</g>
<!-- AppModule&#45;&gt;AppComponent  -->
<g id="edge9" class="edge">
<title>AppModule&#45;&gt;AppComponent </title>
<path fill="none" stroke="black" stroke-dasharray="1,5" d="M598,-187.11C598,-187.11 598,-205.99 598,-205.99"/>
<polygon fill="black" stroke="black" points="594.5,-205.99 598,-215.99 601.5,-205.99 594.5,-205.99"/>
</g>
<!-- AppRoutingModule -->
<g id="node9" class="node">
<title>AppRoutingModule</title>
<polygon fill="#8dd3c7" stroke="black" points="152.27,-122 149.27,-126 128.27,-126 125.27,-122 23.73,-122 23.73,-86 152.27,-86 152.27,-122"/>
<text text-anchor="middle" x="88" y="-99.8" font-family="Times,serif" font-size="14.00">AppRoutingModule</text>
</g>
<!-- AppRoutingModule&#45;&gt;AppModule -->
<g id="edge8" class="edge">
<title>AppRoutingModule&#45;&gt;AppModule</title>
<path fill="none" stroke="black" d="M88,-122.29C88,-144.21 88,-178 88,-178 88,-178 546.26,-178 546.26,-178"/>
<polygon fill="black" stroke="black" points="546.26,-181.5 556.26,-178 546.26,-174.5 546.26,-181.5"/>
</g>
</g>
</svg>
