<?xml version="1.0" encoding="UTF-8" standalone="no"?>
<!DOCTYPE svg PUBLIC "-//W3C//DTD SVG 1.1//EN"
 "http://www.w3.org/Graphics/SVG/1.1/DTD/svg11.dtd">
<!-- Generated by graphviz version 2.47.0 (20210316.0004)
 -->
<!-- Title: dependencies Pages: 1 -->
<svg width="1171pt" height="284pt"
 viewBox="0.00 0.00 1171.00 284.00" xmlns="http://www.w3.org/2000/svg" xmlns:xlink="http://www.w3.org/1999/xlink">
<g id="graph0" class="graph" transform="scale(1 1) rotate(0) translate(4 280)">
<title>dependencies</title>
<polygon fill="white" stroke="transparent" points="-4,4 -4,-280 1167,-280 1167,4 -4,4"/>
<text text-anchor="start" x="560.51" y="-42.4" font-family="Times-12" font-weight="bold" font-size="14.00">Legend</text>
<polygon fill="#ffffb3" stroke="transparent" points="347.5,-10 347.5,-30 367.5,-30 367.5,-10 347.5,-10"/>
<text text-anchor="start" x="371.13" y="-15.4" font-family="Times-12" font-size="14.00"> &#160;Declarations</text>
<polygon fill="#8dd3c7" stroke="transparent" points="460.5,-10 460.5,-30 480.5,-30 480.5,-10 460.5,-10"/>
<text text-anchor="start" x="484.23" y="-15.4" font-family="Times-12" font-size="14.00"> &#160;Module</text>
<polygon fill="#80b1d3" stroke="transparent" points="546.5,-10 546.5,-30 566.5,-30 566.5,-10 546.5,-10"/>
<text text-anchor="start" x="570.28" y="-15.4" font-family="Times-12" font-size="14.00"> &#160;Bootstrap</text>
<polygon fill="#fdb462" stroke="transparent" points="643.5,-10 643.5,-30 663.5,-30 663.5,-10 643.5,-10"/>
<text text-anchor="start" x="667.17" y="-15.4" font-family="Times-12" font-size="14.00"> &#160;Providers</text>
<polygon fill="#fb8072" stroke="transparent" points="739.5,-10 739.5,-30 759.5,-30 759.5,-10 739.5,-10"/>
<text text-anchor="start" x="763.23" y="-15.4" font-family="Times-12" font-size="14.00"> &#160;Exports</text>
<g id="clust1" class="cluster">
<title>cluster_AppModule</title>
<polygon fill="none" stroke="black" stroke-dasharray="1,5" points="8,-70 8,-268 1155,-268 1155,-70 8,-70"/>
</g>
<g id="clust10" class="cluster">
<title>cluster_AppModule_imports</title>
<polygon fill="none" stroke="black" points="1003,-78 1003,-130 1147,-130 1147,-78 1003,-78"/>
</g>
<g id="clust12" class="cluster">
<title>cluster_AppModule_bootstrap</title>
<polygon fill="none" stroke="black" points="519,-208 519,-260 643,-260 643,-208 519,-208"/>
</g>
<g id="clust2" class="cluster">
<title>cluster_AppModule_declarations</title>
<polygon fill="none" stroke="black" points="16,-78 16,-130 995,-130 995,-78 16,-78"/>
</g>
<!-- ActivationComponent -->
<g id="node1" class="node">
<title>ActivationComponent</title>
<polygon fill="#ffffb3" stroke="black" points="987.43,-122 846.57,-122 846.57,-86 987.43,-86 987.43,-122"/>
<text text-anchor="middle" x="917" y="-99.8" font-family="Times,serif" font-size="14.00">ActivationComponent</text>
</g>
<!-- AppModule -->
<g id="node8" class="node">
<title>AppModule</title>
<polygon fill="#8dd3c7" stroke="black" points="622.66,-187 619.66,-191 598.66,-191 595.66,-187 539.34,-187 539.34,-151 622.66,-151 622.66,-187"/>
<text text-anchor="middle" x="581" y="-164.8" font-family="Times,serif" font-size="14.00">AppModule</text>
</g>
<!-- ActivationComponent&#45;&gt;AppModule -->
<g id="edge1" class="edge">
<title>ActivationComponent&#45;&gt;AppModule</title>
<path fill="none" stroke="black" d="M917,-122.11C917,-141.34 917,-169 917,-169 917,-169 632.88,-169 632.88,-169"/>
<polygon fill="black" stroke="black" points="632.88,-165.5 622.88,-169 632.88,-172.5 632.88,-165.5"/>
</g>
<!-- AppComponent -->
<g id="node2" class="node">
<title>AppComponent</title>
<polygon fill="#ffffb3" stroke="black" points="828.94,-122 723.06,-122 723.06,-86 828.94,-86 828.94,-122"/>
<text text-anchor="middle" x="776" y="-99.8" font-family="Times,serif" font-size="14.00">AppComponent</text>
</g>
<!-- AppComponent&#45;&gt;AppModule -->
<g id="edge2" class="edge">
<title>AppComponent&#45;&gt;AppModule</title>
<path fill="none" stroke="black" d="M776,-122.03C776,-138.4 776,-160 776,-160 776,-160 632.83,-160 632.83,-160"/>
<polygon fill="black" stroke="black" points="632.83,-156.5 622.83,-160 632.83,-163.5 632.83,-156.5"/>
</g>
<!-- HomeComponent -->
<g id="node3" class="node">
<title>HomeComponent</title>
<polygon fill="#ffffb3" stroke="black" points="705.55,-122 590.45,-122 590.45,-86 705.55,-86 705.55,-122"/>
<text text-anchor="middle" x="648" y="-99.8" font-family="Times,serif" font-size="14.00">HomeComponent</text>
</g>
<!-- HomeComponent&#45;&gt;AppModule -->
<g id="edge3" class="edge">
<title>HomeComponent&#45;&gt;AppModule</title>
<path fill="none" stroke="black" d="M606.53,-122.11C606.53,-122.11 606.53,-140.99 606.53,-140.99"/>
<polygon fill="black" stroke="black" points="603.03,-140.99 606.53,-150.99 610.03,-140.99 603.03,-140.99"/>
</g>
<!-- LoginComponent -->
<g id="node4" class="node">
<title>LoginComponent</title>
<polygon fill="#ffffb3" stroke="black" points="572.28,-122 457.72,-122 457.72,-86 572.28,-86 572.28,-122"/>
<text text-anchor="middle" x="515" y="-99.8" font-family="Times,serif" font-size="14.00">LoginComponent</text>
</g>
<!-- LoginComponent&#45;&gt;AppModule -->
<g id="edge4" class="edge">
<title>LoginComponent&#45;&gt;AppModule</title>
<path fill="none" stroke="black" d="M555.78,-122.11C555.78,-122.11 555.78,-140.99 555.78,-140.99"/>
<polygon fill="black" stroke="black" points="552.28,-140.99 555.78,-150.99 559.28,-140.99 552.28,-140.99"/>
</g>
<!-- NavbarComponent -->
<g id="node5" class="node">
<title>NavbarComponent</title>
<polygon fill="#ffffb3" stroke="black" points="439.03,-122 316.97,-122 316.97,-86 439.03,-86 439.03,-122"/>
<text text-anchor="middle" x="378" y="-99.8" font-family="Times,serif" font-size="14.00">NavbarComponent</text>
</g>
<!-- NavbarComponent&#45;&gt;AppModule -->
<g id="edge5" class="edge">
<title>NavbarComponent&#45;&gt;AppModule</title>
<path fill="none" stroke="black" d="M378,-122.03C378,-138.4 378,-160 378,-160 378,-160 528.94,-160 528.94,-160"/>
<polygon fill="black" stroke="black" points="528.94,-163.5 538.94,-160 528.94,-156.5 528.94,-163.5"/>
</g>
<!-- StatusComponent -->
<g id="node6" class="node">
<title>StatusComponent</title>
<polygon fill="#ffffb3" stroke="black" points="298.56,-122 183.44,-122 183.44,-86 298.56,-86 298.56,-122"/>
<text text-anchor="middle" x="241" y="-99.8" font-family="Times,serif" font-size="14.00">StatusComponent</text>
</g>
<!-- StatusComponent&#45;&gt;AppModule -->
<g id="edge6" class="edge">
<title>StatusComponent&#45;&gt;AppModule</title>
<path fill="none" stroke="black" d="M241,-122.11C241,-141.34 241,-169 241,-169 241,-169 529.31,-169 529.31,-169"/>
<polygon fill="black" stroke="black" points="529.31,-172.5 539.31,-169 529.31,-165.5 529.31,-172.5"/>
</g>
<!-- SubscriberComponent -->
<g id="node7" class="node">
<title>SubscriberComponent</title>
<polygon fill="#ffffb3" stroke="black" points="165.7,-122 24.3,-122 24.3,-86 165.7,-86 165.7,-122"/>
<text text-anchor="middle" x="95" y="-99.8" font-family="Times,serif" font-size="14.00">SubscriberComponent</text>
</g>
<!-- SubscriberComponent&#45;&gt;AppModule -->
<g id="edge7" class="edge">
<title>SubscriberComponent&#45;&gt;AppModule</title>
<path fill="none" stroke="black" d="M95,-122.29C95,-144.21 95,-178 95,-178 95,-178 529.14,-178 529.14,-178"/>
<polygon fill="black" stroke="black" points="529.14,-181.5 539.14,-178 529.14,-174.5 529.14,-181.5"/>
</g>
<!-- AppComponent  -->
<g id="node10" class="node">
<title>AppComponent </title>
<polygon fill="#80b1d3" stroke="black" points="635.44,-252 526.56,-252 526.56,-216 635.44,-216 635.44,-252"/>
<text text-anchor="middle" x="581" y="-229.8" font-family="Times,serif" font-size="14.00">AppComponent </text>
</g>
<!-- AppModule&#45;&gt;AppComponent  -->
<g id="edge9" class="edge">
<title>AppModule&#45;&gt;AppComponent </title>
<path fill="none" stroke="black" stroke-dasharray="1,5" d="M581,-187.11C581,-187.11 581,-205.99 581,-205.99"/>
<polygon fill="black" stroke="black" points="577.5,-205.99 581,-215.99 584.5,-205.99 577.5,-205.99"/>
</g>
<!-- AppRoutingModule -->
<g id="node9" class="node">
<title>AppRoutingModule</title>
<polygon fill="#8dd3c7" stroke="black" points="1139.27,-122 1136.27,-126 1115.27,-126 1112.27,-122 1010.73,-122 1010.73,-86 1139.27,-86 1139.27,-122"/>
<text text-anchor="middle" x="1075" y="-99.8" font-family="Times,serif" font-size="14.00">AppRoutingModule</text>
</g>
<!-- AppRoutingModule&#45;&gt;AppModule -->
<g id="edge8" class="edge">
<title>AppRoutingModule&#45;&gt;AppModule</title>
<path fill="none" stroke="black" d="M1075,-122.29C1075,-144.21 1075,-178 1075,-178 1075,-178 632.69,-178 632.69,-178"/>
<polygon fill="black" stroke="black" points="632.69,-174.5 622.69,-178 632.69,-181.5 632.69,-174.5"/>
</g>
</g>
</svg>
