<?xml version="1.0" encoding="UTF-8" standalone="no"?>
<!DOCTYPE svg PUBLIC "-//W3C//DTD SVG 1.1//EN"
 "http://www.w3.org/Graphics/SVG/1.1/DTD/svg11.dtd">
<!-- Generated by graphviz version 2.47.0 (20210316.0004)
 -->
<!-- Title: dependencies Pages: 1 -->
<svg width="1279pt" height="284pt"
 viewBox="0.00 0.00 1279.00 284.00" xmlns="http://www.w3.org/2000/svg" xmlns:xlink="http://www.w3.org/1999/xlink">
<g id="graph0" class="graph" transform="scale(1 1) rotate(0) translate(4 280)">
<title>dependencies</title>
<polygon fill="white" stroke="transparent" points="-4,4 -4,-280 1275,-280 1275,4 -4,4"/>
<text text-anchor="start" x="614.51" y="-42.4" font-family="Times-12" font-weight="bold" font-size="14.00">Legend</text>
<polygon fill="#ffffb3" stroke="transparent" points="401.5,-10 401.5,-30 421.5,-30 421.5,-10 401.5,-10"/>
<text text-anchor="start" x="425.13" y="-15.4" font-family="Times-12" font-size="14.00"> &#160;Declarations</text>
<polygon fill="#8dd3c7" stroke="transparent" points="514.5,-10 514.5,-30 534.5,-30 534.5,-10 514.5,-10"/>
<text text-anchor="start" x="538.23" y="-15.4" font-family="Times-12" font-size="14.00"> &#160;Module</text>
<polygon fill="#80b1d3" stroke="transparent" points="600.5,-10 600.5,-30 620.5,-30 620.5,-10 600.5,-10"/>
<text text-anchor="start" x="624.28" y="-15.4" font-family="Times-12" font-size="14.00"> &#160;Bootstrap</text>
<polygon fill="#fdb462" stroke="transparent" points="697.5,-10 697.5,-30 717.5,-30 717.5,-10 697.5,-10"/>
<text text-anchor="start" x="721.17" y="-15.4" font-family="Times-12" font-size="14.00"> &#160;Providers</text>
<polygon fill="#fb8072" stroke="transparent" points="793.5,-10 793.5,-30 813.5,-30 813.5,-10 793.5,-10"/>
<text text-anchor="start" x="817.23" y="-15.4" font-family="Times-12" font-size="14.00"> &#160;Exports</text>
<g id="clust1" class="cluster">
<title>cluster_AppModule</title>
<polygon fill="none" stroke="black" stroke-dasharray="1,5" points="8,-70 8,-268 1263,-268 1263,-70 8,-70"/>
</g>
<g id="clust11" class="cluster">
<title>cluster_AppModule_imports</title>
<polygon fill="none" stroke="black" points="1111,-78 1111,-130 1255,-130 1255,-78 1111,-78"/>
</g>
<g id="clust13" class="cluster">
<title>cluster_AppModule_bootstrap</title>
<polygon fill="none" stroke="black" points="560,-208 560,-260 684,-260 684,-208 560,-208"/>
</g>
<g id="clust2" class="cluster">
<title>cluster_AppModule_declarations</title>
<polygon fill="none" stroke="black" points="16,-78 16,-130 1103,-130 1103,-78 16,-78"/>
</g>
<!-- AppComponent -->
<g id="node1" class="node">
<title>AppComponent</title>
<polygon fill="#ffffb3" stroke="black" points="1094.94,-122 989.06,-122 989.06,-86 1094.94,-86 1094.94,-122"/>
<text text-anchor="middle" x="1042" y="-99.8" font-family="Times,serif" font-size="14.00">AppComponent</text>
</g>
<!-- AppModule -->
<g id="node9" class="node">
<title>AppModule</title>
<polygon fill="#8dd3c7" stroke="black" points="663.66,-187 660.66,-191 639.66,-191 636.66,-187 580.34,-187 580.34,-151 663.66,-151 663.66,-187"/>
<text text-anchor="middle" x="622" y="-164.8" font-family="Times,serif" font-size="14.00">AppModule</text>
</g>
<!-- AppComponent&#45;&gt;AppModule -->
<g id="edge1" class="edge">
<title>AppComponent&#45;&gt;AppModule</title>
<path fill="none" stroke="black" d="M1042,-122.13C1042,-142.57 1042,-173 1042,-173 1042,-173 673.81,-173 673.81,-173"/>
<polygon fill="black" stroke="black" points="673.81,-169.5 663.81,-173 673.81,-176.5 673.81,-169.5"/>
</g>
<!-- DeactivateComponent -->
<g id="node2" class="node">
<title>DeactivateComponent</title>
<polygon fill="#ffffb3" stroke="black" points="971.68,-122 830.32,-122 830.32,-86 971.68,-86 971.68,-122"/>
<text text-anchor="middle" x="901" y="-99.8" font-family="Times,serif" font-size="14.00">DeactivateComponent</text>
</g>
<!-- DeactivateComponent&#45;&gt;AppModule -->
<g id="edge2" class="edge">
<title>DeactivateComponent&#45;&gt;AppModule</title>
<path fill="none" stroke="black" d="M901,-122.27C901,-140.56 901,-166 901,-166 901,-166 673.77,-166 673.77,-166"/>
<polygon fill="black" stroke="black" points="673.77,-162.5 663.77,-166 673.77,-169.5 673.77,-162.5"/>
</g>
<!-- HomeComponent -->
<g id="node3" class="node">
<title>HomeComponent</title>
<polygon fill="#ffffb3" stroke="black" points="812.55,-122 697.45,-122 697.45,-86 812.55,-86 812.55,-122"/>
<text text-anchor="middle" x="755" y="-99.8" font-family="Times,serif" font-size="14.00">HomeComponent</text>
</g>
<!-- HomeComponent&#45;&gt;AppModule -->
<g id="edge3" class="edge">
<title>HomeComponent&#45;&gt;AppModule</title>
<path fill="none" stroke="black" d="M755,-122.01C755,-138.05 755,-159 755,-159 755,-159 673.72,-159 673.72,-159"/>
<polygon fill="black" stroke="black" points="673.72,-155.5 663.72,-159 673.72,-162.5 673.72,-155.5"/>
</g>
<!-- LoginComponent -->
<g id="node4" class="node">
<title>LoginComponent</title>
<polygon fill="#ffffb3" stroke="black" points="679.28,-122 564.72,-122 564.72,-86 679.28,-86 679.28,-122"/>
<text text-anchor="middle" x="622" y="-99.8" font-family="Times,serif" font-size="14.00">LoginComponent</text>
</g>
<!-- LoginComponent&#45;&gt;AppModule -->
<g id="edge4" class="edge">
<title>LoginComponent&#45;&gt;AppModule</title>
<path fill="none" stroke="black" d="M622,-122.11C622,-122.11 622,-140.99 622,-140.99"/>
<polygon fill="black" stroke="black" points="618.5,-140.99 622,-150.99 625.5,-140.99 618.5,-140.99"/>
</g>
<!-- NavbarComponent -->
<g id="node5" class="node">
<title>NavbarComponent</title>
<polygon fill="#ffffb3" stroke="black" points="546.03,-122 423.97,-122 423.97,-86 546.03,-86 546.03,-122"/>
<text text-anchor="middle" x="485" y="-99.8" font-family="Times,serif" font-size="14.00">NavbarComponent</text>
</g>
<!-- NavbarComponent&#45;&gt;AppModule -->
<g id="edge5" class="edge">
<title>NavbarComponent&#45;&gt;AppModule</title>
<path fill="none" stroke="black" d="M485,-122.01C485,-138.05 485,-159 485,-159 485,-159 570.15,-159 570.15,-159"/>
<polygon fill="black" stroke="black" points="570.15,-162.5 580.15,-159 570.15,-155.5 570.15,-162.5"/>
</g>
<!-- RequestComponent -->
<g id="node6" class="node">
<title>RequestComponent</title>
<polygon fill="#ffffb3" stroke="black" points="406.43,-122 279.57,-122 279.57,-86 406.43,-86 406.43,-122"/>
<text text-anchor="middle" x="343" y="-99.8" font-family="Times,serif" font-size="14.00">RequestComponent</text>
</g>
<!-- RequestComponent&#45;&gt;AppModule -->
<g id="edge6" class="edge">
<title>RequestComponent&#45;&gt;AppModule</title>
<path fill="none" stroke="black" d="M343,-122.27C343,-140.56 343,-166 343,-166 343,-166 570.23,-166 570.23,-166"/>
<polygon fill="black" stroke="black" points="570.23,-169.5 580.23,-166 570.23,-162.5 570.23,-169.5"/>
</g>
<!-- StatusComponent -->
<g id="node7" class="node">
<title>StatusComponent</title>
<polygon fill="#ffffb3" stroke="black" points="261.56,-122 146.44,-122 146.44,-86 261.56,-86 261.56,-122"/>
<text text-anchor="middle" x="204" y="-99.8" font-family="Times,serif" font-size="14.00">StatusComponent</text>
</g>
<!-- StatusComponent&#45;&gt;AppModule -->
<g id="edge7" class="edge">
<title>StatusComponent&#45;&gt;AppModule</title>
<path fill="none" stroke="black" d="M204,-122.13C204,-142.57 204,-173 204,-173 204,-173 570.01,-173 570.01,-173"/>
<polygon fill="black" stroke="black" points="570.01,-176.5 580.01,-173 570.01,-169.5 570.01,-176.5"/>
</g>
<!-- UpcComponent -->
<g id="node8" class="node">
<title>UpcComponent</title>
<polygon fill="#ffffb3" stroke="black" points="128.15,-122 23.85,-122 23.85,-86 128.15,-86 128.15,-122"/>
<text text-anchor="middle" x="76" y="-99.8" font-family="Times,serif" font-size="14.00">UpcComponent</text>
</g>
<!-- UpcComponent&#45;&gt;AppModule -->
<g id="edge8" class="edge">
<title>UpcComponent&#45;&gt;AppModule</title>
<path fill="none" stroke="black" d="M76,-122.01C76,-144.49 76,-180 76,-180 76,-180 570.06,-180 570.06,-180"/>
<polygon fill="black" stroke="black" points="570.06,-183.5 580.06,-180 570.06,-176.5 570.06,-183.5"/>
</g>
<!-- AppComponent  -->
<g id="node11" class="node">
<title>AppComponent </title>
<polygon fill="#80b1d3" stroke="black" points="676.44,-252 567.56,-252 567.56,-216 676.44,-216 676.44,-252"/>
<text text-anchor="middle" x="622" y="-229.8" font-family="Times,serif" font-size="14.00">AppComponent </text>
</g>
<!-- AppModule&#45;&gt;AppComponent  -->
<g id="edge10" class="edge">
<title>AppModule&#45;&gt;AppComponent </title>
<path fill="none" stroke="black" stroke-dasharray="1,5" d="M622,-187.11C622,-187.11 622,-205.99 622,-205.99"/>
<polygon fill="black" stroke="black" points="618.5,-205.99 622,-215.99 625.5,-205.99 618.5,-205.99"/>
</g>
<!-- AppRoutingModule -->
<g id="node10" class="node">
<title>AppRoutingModule</title>
<polygon fill="#8dd3c7" stroke="black" points="1247.27,-122 1244.27,-126 1223.27,-126 1220.27,-122 1118.73,-122 1118.73,-86 1247.27,-86 1247.27,-122"/>
<text text-anchor="middle" x="1183" y="-99.8" font-family="Times,serif" font-size="14.00">AppRoutingModule</text>
</g>
<!-- AppRoutingModule&#45;&gt;AppModule -->
<g id="edge9" class="edge">
<title>AppRoutingModule&#45;&gt;AppModule</title>
<path fill="none" stroke="black" d="M1183,-122.01C1183,-144.49 1183,-180 1183,-180 1183,-180 673.71,-180 673.71,-180"/>
<polygon fill="black" stroke="black" points="673.71,-176.5 663.71,-180 673.71,-183.5 673.71,-176.5"/>
</g>
</g>
</svg>
